<svg width="360" height="360" viewBox="0 0 360 360" fill="none" xmlns="http://www.w3.org/2000/svg">
<path fill-rule="evenodd" clip-rule="evenodd" d="M180 360C279.411 360 360 279.411 360 180C360 80.5887 279.411 0 180 0C80.5887 0 0 80.5887 0 180C0 279.411 80.5887 360 180 360Z" fill="#F5F5F8"/>
<mask id="mask0" mask-type="alpha" maskUnits="userSpaceOnUse" x="0" y="0" width="360" height="360">
<path fill-rule="evenodd" clip-rule="evenodd" d="M180 360C279.411 360 360 279.411 360 180C360 80.5887 279.411 0 180 0C80.5887 0 0 80.5887 0 180C0 279.411 80.5887 360 180 360Z" fill="white"/>
</mask>
<g mask="url(#mask0)">
<path fill-rule="evenodd" clip-rule="evenodd" d="M310.963 317.235C300.351 301.884 284.706 290.726 266.736 285.692L224.999 274V244.001C242.643 230.747 254.23 209.89 254.942 186.297C257.408 187.384 260.13 188 263 188C274.045 188 283 179.046 283 168C283 156.954 274.045 148 263 148C260.153 148 257.451 148.603 255 149.675V144C255 102.578 221.421 69 180 69H179.999C138.578 69 105 102.578 105 144V149.675C102.548 148.603 99.846 148 97 148C85.954 148 77 156.954 77 168C77 179.046 85.954 188 97 188C99.869 188 102.591 187.385 105.058 186.297C105.769 209.89 117.356 230.747 134.999 244.001V274L93.263 285.692C75.293 290.726 59.648 301.884 49.036 317.235L20 359.24V389H340V359.24L310.963 317.235Z" fill="#844123"/>
<path fill-rule="evenodd" clip-rule="evenodd" d="M179.999 259C170.751 259 161.899 257.316 153.719 254.255C165.353 261.687 179.169 266 193.999 266C205.059 266 215.548 263.587 224.999 259.29V244.001C212.464 253.417 196.884 259 179.999 259Z" fill="#702A0F"/>
<path d="M107.609 170.918C107.864 169.989 108.001 169.01 108.001 168C108.001 161.925 103.076 157 97.0005 157C95.4815 157 94.0345 157.308 92.7185 157.864" stroke="#00004D" stroke-width="2" stroke-linecap="round" stroke-linejoin="round"/>
<path d="M252.391 170.918C252.136 169.989 252 169.01 252 168C252 161.925 256.925 157 263 157C264.518 157 265.965 157.308 267.282 157.864" stroke="#00004D" stroke-width="2" stroke-linecap="round" stroke-linejoin="round"/>
<path fill-rule="evenodd" clip-rule="evenodd" d="M259 121.161C258.523 114.937 254.105 108.62 246.001 103.2C238.463 73.8559 211.832 52.1689 180.137 52.1689C148.52 52.1689 121.947 73.7489 114.332 102.981C106.017 108.448 101.483 114.853 101 121.161C100.403 128.95 99.152 142.054 98.47 149.074C101.205 149.273 103.783 150.017 106.104 151.206C110.661 145.661 130.189 126.222 180 126.222C229.811 126.222 249.339 145.661 253.896 151.207C256.216 150.017 258.795 149.273 261.53 149.074C260.848 142.054 259.597 128.95 259 121.161" fill="#FB344F"/>
<path d="M114.333 102.964C127.294 94.4486 149.475 88.2216 180 88.2216C192.985 88.2216 204.461 89.3486 214.359 91.2996" stroke="#000066" stroke-width="2" stroke-linecap="round" stroke-linejoin="round"/>
<path d="M203.5 173C205.043 169.469 208.567 167 212.668 167C216.769 167 220.293 169.469 221.836 173" stroke="#00004D" stroke-width="2" stroke-linecap="round" stroke-linejoin="round"/>
<path fill-rule="evenodd" clip-rule="evenodd" d="M155 173C155 177.419 151.418 181 147 181C142.582 181 139 177.419 139 173C139 168.582 142.582 165 147 165C151.418 165 155 168.582 155 173" fill="#00004D"/>
<path fill-rule="evenodd" clip-rule="evenodd" d="M340 366.201L310.964 318.496C300.352 301.063 284.707 288.389 266.736 282.672L230 270.983V246.679C230 243.542 227.762 241 225 241V246.68C212.465 257.374 196.885 263.715 180 263.715C163.115 263.715 147.535 257.374 135 246.68V241C132.238 241 130 243.542 130 246.679V270.983L93.264 282.672C75.293 288.389 59.648 301.063 49.036 318.496L20 366.2V400H340V366.201Z" fill="#FFCA00"/>
<path d="M206.458 287.225C198.229 290.749 189.313 292.676 180 292.676C160.79 292.676 143.266 284.473 129.997 270.983" stroke="#00004D" stroke-width="2" stroke-linecap="round" stroke-linejoin="round"/>
<path fill-rule="evenodd" clip-rule="evenodd" d="M200 211.5C200 222.546 191.046 231.5 180 231.5C168.954 231.5 160 222.546 160 211.5H200Z" fill="white"/>
<path d="M177 162L187 196L173 198" stroke="#00004D" stroke-width="2" stroke-linecap="round" stroke-linejoin="round"/>
</g>
</svg>
