<svg width="360" height="360" viewBox="0 0 360 360" fill="none" xmlns="http://www.w3.org/2000/svg">
<path fill-rule="evenodd" clip-rule="evenodd" d="M180 360C279.411 360 360 279.411 360 180C360 80.5887 279.411 0 180 0C80.5887 0 0 80.5887 0 180C0 279.411 80.5887 360 180 360Z" fill="#F5F5F8"/>
<mask id="mask0" mask-type="alpha" maskUnits="userSpaceOnUse" x="0" y="0" width="360" height="360">
<path fill-rule="evenodd" clip-rule="evenodd" d="M180 360C279.411 360 360 279.411 360 180C360 80.5887 279.411 0 180 0C80.5887 0 0 80.5887 0 180C0 279.411 80.5887 360 180 360Z" fill="white"/>
</mask>
<g mask="url(#mask0)">
<path fill-rule="evenodd" clip-rule="evenodd" d="M310.963 323.235C300.351 307.884 284.706 296.726 266.736 291.692L224.999 280V250.001C242.643 236.747 254.23 215.89 254.942 192.297C257.408 193.384 260.13 194 263 194C274.045 194 283 185.046 283 174C283 162.954 274.045 154 263 154C260.153 154 257.451 154.603 255 155.675V150C255 108.578 221.421 75 180 75H179.999C138.578 75 105 108.578 105 150V155.675C102.548 154.603 99.846 154 97 154C85.954 154 77 162.954 77 174C77 185.046 85.954 194 97 194C99.869 194 102.591 193.385 105.058 192.297C105.769 215.89 117.356 236.747 134.999 250.001V280L93.263 291.692C75.293 296.726 59.648 307.884 49.036 323.235L20 365.24V395H340V365.24L310.963 323.235Z" fill="#F5CDD3"/>
<path fill-rule="evenodd" clip-rule="evenodd" d="M179.999 265C170.751 265 161.899 263.316 153.719 260.255C165.353 267.687 179.169 272 193.999 272C205.059 272 215.548 269.587 224.999 265.29V250.001C212.464 259.417 196.884 265 179.999 265Z" fill="#F48C9D"/>
<path d="M107.609 176.918C107.864 175.989 108.001 175.01 108.001 174C108.001 167.925 103.076 163 97.0006 163C95.4816 163 94.0346 163.308 92.7186 163.864" stroke="#00004D" stroke-width="2" stroke-linecap="round" stroke-linejoin="round"/>
<path d="M252.391 176.918C252.136 175.989 252 175.01 252 174C252 167.925 256.925 163 263 163C264.518 163 265.965 163.308 267.282 163.864" stroke="#00004D" stroke-width="2" stroke-linecap="round" stroke-linejoin="round"/>
<path fill-rule="evenodd" clip-rule="evenodd" d="M221 178C221 182.418 217.418 186 213 186C208.582 186 205 182.418 205 178C205 173.582 208.582 170 213 170C217.418 170 221 173.582 221 178Z" fill="#00004D"/>
<path fill-rule="evenodd" clip-rule="evenodd" d="M155 178C155 182.418 151.418 186 147 186C142.582 186 139 182.418 139 178C139 173.582 142.582 170 147 170C151.418 170 155 173.582 155 178Z" fill="#00004D"/>
<path d="M177 170L187 204L173 206" stroke="#00004D" stroke-width="2" stroke-linecap="round" stroke-linejoin="round"/>
<path fill-rule="evenodd" clip-rule="evenodd" d="M340 350.24L310.964 308.235C300.352 292.885 284.707 281.726 266.736 276.692L225 265C225 289.852 204.853 310 180 310C155.147 310 135 289.852 135 265L93.264 276.692C75.293 281.726 59.648 292.885 49.036 308.235L20 350.24V380H340V350.24Z" fill="#AE0BFF"/>
<path d="M233.776 290.64C223.963 310.411 203.568 323.999 180 323.999C148.594 323.999 122.824 299.87 120.216 269.14" stroke="#00004D" stroke-width="2" stroke-linecap="round" stroke-linejoin="round"/>
<path d="M192.56 228.5C189.902 232.703 185.213 235.493 179.873 235.493C174.7 235.493 170.138 232.874 167.441 228.889" stroke="#00004D" stroke-width="2" stroke-linecap="round" stroke-linejoin="round"/>
<path fill-rule="evenodd" clip-rule="evenodd" d="M260 156.249V152V81.9999C260 76.4779 255.522 71.9999 250 71.9999H160C126.863 71.9999 100 98.8629 100 132V152V156.249C105.7 157.109 110.613 160.354 113.67 164.958L120.443 142.244C122.971 133.769 130.766 127.959 139.609 127.959H220.391C229.234 127.959 237.028 133.769 239.557 142.244L246.33 164.958C249.387 160.354 254.3 157.109 260 156.249Z" fill="#00004D"/>
</g>
</svg>
