<svg width="184" height="150" viewBox="0 0 184 150" fill="none" xmlns="http://www.w3.org/2000/svg">
<path fill-rule="evenodd" clip-rule="evenodd" d="M47.8923 58.6616C47.6503 58.1273 46.693 58.4545 46.8937 58.9943C49.8085 66.8477 51.8488 74.9734 52.9808 83.2365C53.0815 83.9013 54.1189 83.6764 54.0361 83.0263C53.2719 77.0387 50.5162 64.4591 47.8923 58.6616ZM68.5013 129.462C66.5779 128.949 65.3329 128.604 63.3783 128.204C63.2381 128.169 63.0889 128.187 62.9627 128.256C62.8366 128.324 62.7434 128.437 62.7031 128.57C62.6629 128.704 62.6787 128.847 62.7473 128.969C62.8159 129.091 62.9317 129.183 63.0701 129.225C64.7565 129.783 67.367 130.101 67.5282 130.462C67.5918 130.607 63.5917 143.867 62.9083 144.888C62.3307 145.75 61.3989 145.032 60.6296 144.719C59.7705 144.371 59.1387 144.232 58.277 143.891C57.4656 143.568 57.0829 144.836 57.8949 145.155C58.8642 145.535 59.6144 145.693 60.5857 146.064C62.2097 146.683 63.3879 147.244 64.1037 145.218C65.8379 140.319 67.3371 135.17 68.9318 130.212C68.9751 130.058 68.9542 129.893 68.8734 129.753C68.7927 129.614 68.6583 129.509 68.4987 129.462H68.5013ZM32.803 115.43C42.3209 120.128 52.6013 123.154 62.8172 126.366C60.4042 130.138 55.5391 140.816 55.5391 150C44.194 147.208 5.27885 130.819 1.59202 121.707C-2.0948 112.595 0.981903 74.2359 7.12449 66.1542C11.3348 60.615 23.178 55.3519 31.5509 53C38.2074 59.8479 50.285 82.3238 54.6959 92.5314C54.6246 101.151 54.7106 109.791 55.3965 118.388C55.4474 119.023 56.3995 118.885 56.4014 118.277C56.4244 109.046 56.1378 99.8071 56.1696 90.5542C56.2117 78.013 58.4987 66.0604 57.1472 53.3162C62.8907 54.2931 68.5309 55.7613 74 57.7032C74 62.5892 73.3338 111.476 73.2409 125.478C61.3754 124.865 45.6301 119.528 34.8626 114.601C29.8747 112.32 26.2133 110.536 26.6757 104.824C27.2641 97.5478 27.1915 90.2081 28.2863 82.9892C28.3008 82.8599 28.2624 82.7303 28.1792 82.6275C28.096 82.5247 27.9745 82.4567 27.84 82.4377C27.7056 82.4187 27.5687 82.4502 27.458 82.5257C27.3474 82.6011 27.2715 82.7146 27.2463 82.8423C25.7968 89.5897 25.4306 98.9772 25.237 105.919C25.1064 110.597 28.5328 113.32 32.8011 115.427L32.803 115.43ZM57.2064 95.4926C57.1516 95.6197 57.1499 95.7622 57.202 95.8904C57.254 96.0186 57.3556 96.1228 57.4858 96.1812C57.6159 96.2396 57.7646 96.2478 57.9009 96.2041C58.0372 96.1604 58.1507 96.0682 58.2178 95.9465C60.609 91.5592 62.6734 87.0157 64.3954 82.35C65.8729 78.4675 67.1027 76.569 63.6866 73.308C62.2167 71.9035 61.8849 71.5319 63.6165 71.1017C64.6657 70.8612 65.667 70.4589 66.5811 69.9105C67.6759 69.0935 67.3931 67.884 66.911 66.8171C65.4619 63.5011 63.719 60.3098 61.7015 57.2779C61.3238 56.7295 60.5347 57.2919 60.841 57.8439C61.9473 59.8406 65.7271 66.1164 66.0793 68.0625C66.3162 69.3786 63.3522 69.8904 62.2186 70.2913C59.8393 71.1255 61.0831 72.5707 62.3759 73.7589C65.7086 76.823 64.8272 77.7157 63.3898 81.5311C61.5798 86.3391 59.4361 90.8534 57.2084 95.4926H57.2064ZM29.3696 58.5154C29.5651 57.9408 30.516 58.2577 30.374 58.834C29.8759 60.849 28.9028 64.7723 29.12 66.8159C29.2276 67.8298 30.0116 68.238 30.8822 68.5372C32.3801 69.0539 33.9219 69.4633 35.4358 69.9318C39.0322 71.045 38.1189 72.6128 37.8922 75.6081C37.5349 80.3168 37.1795 80.3283 40.9995 83.4163C44.6653 86.3799 48.4406 89.8395 52.2389 92.5558C52.849 92.992 52.0937 93.8408 51.5001 93.4259C47.4452 90.5908 42.2974 86.2404 38.5946 82.9989C35.8752 80.6171 36.493 78.378 36.7305 75.22C36.8872 73.1343 37.6954 71.8956 35.2262 71.1151C33.6978 70.6331 32.1534 70.206 30.6351 69.7003C29.5721 69.3457 28.4876 68.7967 28.1035 67.6616C27.466 65.7728 28.7429 60.3573 29.3696 58.5154Z" fill="#74D69D"/>
<path fill-rule="evenodd" clip-rule="evenodd" d="M37.1307 21.5628C37.6269 21.918 38.1554 21.3307 38.3635 20.9533C39.9541 18.066 41.0283 13.7872 40.3348 10.5574C40.2206 10.025 39.2683 9.98643 39.2784 10.5881C39.3419 14.3008 39.1877 16.9187 37.328 20.3028C35.4011 18.6785 32.0149 18.6695 31.5022 21.3579C31.0466 23.7508 32.2674 27.6546 34.0941 29.3723C34.4317 29.7288 34.873 29.9821 35.3621 30.1001C35.8513 30.2182 36.3663 30.1957 36.842 30.0355C37.5901 36.1357 38.682 42.2112 38.9428 48.7304C38.9692 48.8515 39.04 48.9598 39.1426 49.036C39.2452 49.1122 39.3729 49.1513 39.5029 49.1465C39.633 49.1417 39.7571 49.0931 39.8531 49.0095C39.949 48.926 40.0107 48.8127 40.0271 48.69C40.4497 42.9178 38.7106 34.8183 37.7887 29.0588C37.6935 28.4607 37.111 28.2225 36.6872 28.5517C35.6777 29.3355 34.8313 28.2298 34.3326 27.4358C33.4932 26.0997 32.3981 23.0611 32.933 21.4899C33.5858 19.5732 36.0223 20.7706 37.1307 21.5628ZM53.8747 51.2035C53.973 52.3364 54.1564 59.2312 53.1533 59.5092C52.015 59.8245 48.309 56.5272 46.2266 56.1076C45.2432 56.8455 40.2067 60.5185 38.9637 59.6491C37.441 58.5855 37.0266 51.8716 37.118 50.3571C37.1311 50.2631 37.1665 50.1731 37.2215 50.0939C37.2764 50.0148 37.3495 49.9485 37.4353 49.9C37.5211 49.8516 37.6173 49.8223 37.7168 49.8142C37.8162 49.8062 37.9163 49.8197 38.0095 49.8536C40.8389 50.6349 43.5324 51.8063 46.0039 53.3306C47.6431 52.6411 49.2029 51.7925 50.6585 50.7984C51.8507 49.9815 53.6526 48.6249 53.8779 51.2041L53.8747 51.2035ZM49.9085 42.2944C54.6538 43.4695 59.2741 42.3776 61.1865 37.6393C64.1927 30.1928 61.3172 14.9773 57.5376 7.57239C57.2286 6.96647 56.3422 7.45181 56.5858 8.05472C59.9651 16.3091 62.5163 26.3457 60.7335 35.1349C59.5489 40.974 55.3733 42.6712 49.6884 41.1217C48.3109 40.7461 46.9601 40.2343 45.6588 39.7724C45.0363 39.5518 44.7864 40.4435 45.3618 40.6907C46.4768 41.1799 47.6189 41.6114 48.783 41.9833C49.0558 43.9807 48.8674 48.1239 48.9359 49.1971C48.9739 49.7921 49.906 49.7638 50.0145 49.1898C50.2359 48.0196 50.0507 43.4273 49.9079 42.2974L49.9085 42.2944ZM48.6535 0.0083246C48.0381 0.0306321 48.0711 0.951272 48.6599 1.02181C51.5081 1.36245 55.841 2.13176 55.4374 5.82577C55.4345 5.94512 55.4782 6.06127 55.5601 6.15176C55.6421 6.24225 55.7564 6.30064 55.8811 6.31564C56.0057 6.33064 56.1318 6.30119 56.2349 6.23297C56.338 6.16476 56.4108 6.06263 56.4393 5.94635C57.339 1.91713 52.1882 -0.124918 48.6535 0.00591315V0.0083246ZM51.9433 6.48475C52.0092 6.59668 52.0256 6.72889 51.9889 6.85231C51.9522 6.97572 51.8654 7.08022 51.7476 7.14282C51.6298 7.20542 51.4907 7.221 51.3608 7.18611C51.2309 7.15123 51.1209 7.06875 51.0551 6.95682C49.9487 5.39358 48.4303 4.13335 46.6513 3.30183C44.8724 2.47032 42.8951 2.09661 40.9167 2.21798C37.9301 2.3265 30.7941 4.05624 30.2174 7.38549C30.1032 8.04326 28.9205 7.88289 29.0042 7.22873C29.5118 3.26824 36.9626 1.29794 40.4421 1.06824C44.8384 0.778237 49.8882 2.53873 51.944 6.48475H51.9433ZM44.2826 8.24162C44.7832 8.54669 44.3232 9.3781 43.7883 9.12488C40.5404 7.58626 36.5 6.93994 33.1423 8.60939C29.1489 10.5942 30.0423 14.6939 32.1709 17.6729C32.2601 17.7879 32.2991 17.9311 32.2798 18.0728C32.2605 18.2144 32.1844 18.3435 32.0674 18.4331C31.9503 18.5227 31.8014 18.5659 31.6516 18.5537C31.5019 18.5414 31.3629 18.4747 31.2636 18.3674C28.5645 15.3324 28.1547 10.2282 32.0371 7.89856C35.5902 5.76488 40.8177 6.12903 44.2826 8.24162ZM58.4798 20.2612C59.0305 20.6356 58.7488 21.0323 58.2488 21.0757C57.6357 21.0357 57.0197 21.0734 56.4171 21.1878C55.9044 21.3084 55.5167 20.8044 56.1411 20.3534C56.4904 20.1502 56.8886 20.035 57.2978 20.0189C57.7071 20.0028 58.1139 20.0861 58.4798 20.2612ZM50.3095 20.7061C51.3831 20.9636 51.4237 21.8269 50.2461 21.7516C49.3974 21.7319 48.5526 21.8674 47.7577 22.1507C47.2716 22.2936 47.014 21.7407 47.4537 21.3669C47.8523 21.0694 48.3135 20.8567 48.8061 20.7432C49.2987 20.6297 49.8112 20.6181 50.3089 20.7091L50.3095 20.7061ZM58.6669 16.6829C58.9937 17.1857 58.5743 17.5951 58.1035 17.2768C56.8155 16.4026 55.8949 16.6654 54.9743 17.5885C54.8796 17.6745 54.7555 17.7254 54.6247 17.7319C54.4938 17.7384 54.3649 17.7001 54.2613 17.6238C54.1577 17.5476 54.0864 17.4385 54.0602 17.3165C54.0341 17.1945 54.055 17.0677 54.119 16.959C54.9165 15.3915 57.7482 15.2667 58.6669 16.6829ZM50.6858 17.0959C51.3628 17.498 50.6579 18.4826 49.9879 18.0708C49.281 17.6394 48.4233 17.4911 47.6018 17.6582C46.7803 17.8252 46.0615 18.294 45.6023 18.9625C45.5208 19.0651 45.4009 19.134 45.2674 19.1549C45.1339 19.1758 44.9971 19.147 44.8853 19.0746C44.7735 19.0022 44.6953 18.8916 44.667 18.7659C44.6386 18.6402 44.6623 18.509 44.7331 18.3994C45.8827 16.37 48.7068 15.9196 50.6871 17.0959H50.6858ZM58.7437 32.6557C59.9245 33.5601 59.6053 33.8615 58.2647 33.5456C57.4335 33.2749 56.5793 33.0732 55.7115 32.9427C55.5935 32.9241 55.4858 32.8677 55.4062 32.7829C55.3266 32.6981 55.28 32.5899 55.274 32.4764C55.268 32.3629 55.303 32.2509 55.3732 32.1589C55.4435 32.067 55.5447 32.0006 55.6601 31.9708C56.1847 31.7942 56.7508 31.7603 57.2946 31.8731C57.822 32.0521 58.3125 32.3173 58.7437 32.6569V32.6557ZM53.8519 32.0962C54.2687 32.2771 54.4146 32.7751 54.0206 33.0181C53.2382 33.3538 52.4301 33.6326 51.6032 33.8519C50.8 34.1413 50.1566 34.4427 49.3515 34.7804C48.3997 35.1789 47.6346 34.9335 48.7462 34.1322C49.5076 33.583 50.1979 32.8125 51.0792 32.4507C51.7911 32.1583 53.2421 31.8273 53.8544 32.0962H53.8519ZM54.4349 19.7885C55.8951 22.8271 56.6678 26.1231 56.7032 29.4633C56.6918 31.8147 55.2477 31.5198 53.5251 30.9344C52.7854 30.7258 52.0845 30.4087 51.4478 29.9945C51.3646 29.9197 51.3092 29.8214 51.2898 29.7142C51.2704 29.607 51.288 29.4967 51.3401 29.3998C51.3922 29.3029 51.4759 29.2247 51.5787 29.1768C51.6815 29.1289 51.7978 29.1139 51.9103 29.1341C52.5207 29.309 53.086 29.6165 53.6818 29.8347C54.7319 30.2158 55.5504 30.3671 55.5408 29.5104C55.5078 26.2674 54.8062 23.062 53.4756 20.0755C53.2244 19.4943 54.171 19.2465 54.4375 19.7885H54.4349ZM107.731 131.249C108.493 130.38 109.032 131.315 108.603 131.844C107.043 133.769 102.621 133.894 100.228 134.147C92.0522 135.008 90.2781 136.921 83.1922 140.127C78.4804 142.322 73.2391 143.288 68.0053 142.926C66.0143 142.81 66.9482 141.638 68.063 141.688C72.5551 141.892 77.4197 141.332 83.8673 138.246C90.2344 135.198 92.5972 133.738 99.8468 132.964C101.982 132.736 106.363 132.811 107.731 131.249ZM115.409 69.2702C115.562 63.3557 121.071 57.393 128.316 57.393C136.682 57.393 141.28 64.1317 141.353 68.4461C132.957 69.1243 119.796 69.3667 115.409 69.2702ZM127.296 44.0344C130.7 43.7408 133.419 45.3439 133.52 49.1736C133.621 53.0032 130.714 54.748 128.418 54.748C126.123 54.748 122.347 53.2456 122.092 49.9007C121.837 46.5557 123.932 44.3256 127.294 44.0344H127.296ZM150.877 27.5147C150.753 27.4793 150.619 27.4839 150.498 27.5279C150.377 27.5718 150.274 27.6527 150.206 27.7579C150.139 27.863 150.109 27.9866 150.123 28.1092C150.137 28.2319 150.193 28.3468 150.282 28.436C151.215 29.6267 151.884 30.1898 152.075 31.8123C152.214 32.9891 153.237 33.2417 153.506 31.793C153.787 30.2797 152.395 27.9754 150.877 27.5159V27.5147ZM145.458 26.5344C148.005 26.2143 150.234 30.51 150.131 32.6569C150.052 34.3252 148.932 34.7538 148.595 32.7558C148.342 31.228 147.326 27.818 145.457 27.5835C145.325 27.5636 145.206 27.4998 145.119 27.4037C145.033 27.3075 144.986 27.1853 144.986 27.0589C144.986 26.9326 145.033 26.8103 145.119 26.7142C145.206 26.6181 145.325 26.5543 145.457 26.5344H145.458ZM145.668 32.7443C145.69 29.558 143.257 25.3817 139.392 26.3041C138.925 26.4156 138.803 27.241 139.397 27.3176C142.903 27.7704 143.497 30.1953 143.987 33.0331C144.391 35.37 145.652 35.0921 145.668 32.7443ZM133.683 27.7016C137.008 25.0892 141.678 29.3084 140.789 33.343C140.595 34.2269 139.576 33.7096 139.506 32.9554C139.324 30.9579 137.92 27.3483 134.233 28.5704C133.738 28.7338 133.261 28.0338 133.683 27.7016ZM183.002 79.1127C182.847 67.4766 183.498 55.3166 183.002 43.833C182.665 35.9952 182.453 31.3975 173.213 30.3116C167.698 29.6635 160.604 30.1772 155.251 30.2097C155.108 30.2152 154.973 30.2727 154.874 30.3703C154.775 30.4679 154.719 30.5981 154.718 30.7338C154.717 30.8696 154.771 31.0005 154.869 31.0993C154.967 31.1982 155.101 31.2575 155.243 31.2648C160.844 31.5295 167.313 31.3649 172.422 31.6573C180.57 32.1234 181.729 36.1749 181.743 44.6294C181.762 56.2203 181.426 67.7967 181.538 79.4027C181.653 91.3794 182.651 104.687 182.286 116.509C181.925 128.189 176.16 127.723 167.574 127.924C141.698 128.538 114.263 128.089 88.454 128.271C87.862 128.275 87.8627 129.262 88.454 129.267C113.184 129.508 141.447 130.143 166.341 129.482C177.863 129.176 182.97 129.615 183.81 116.881C184.503 106.362 183.084 85.5053 182.999 79.1157L183.002 79.1127ZM135.292 30.144C120.838 29.9903 105.447 29.5731 91.0395 30.0524C84.0202 30.2857 75.7199 32.7383 75.7199 40.7124C75.7053 62.1071 75.5854 83.4982 75.621 104.897C75.6286 109.863 75.2174 116.175 75.8031 120.922C76.0746 123.121 76.8322 124.654 78.537 125.916C79.03 126.282 79.9963 125.672 79.3435 125.052C77.7611 123.557 77.3131 122.017 77.1723 120.1C76.7916 114.813 77.1583 108.631 77.1615 103.228C77.1716 82.4058 77.098 61.5814 77.098 40.7618C77.098 32.9548 85.8685 31.5018 92.3535 31.4264C106.615 31.26 120.905 31.5982 135.175 31.5289C136.104 31.5241 136.238 30.1543 135.29 30.1422L135.292 30.144ZM140.804 103.825C141.071 103.803 141.34 103.839 141.591 103.928C141.843 104.017 142.07 104.158 142.257 104.341C142.444 104.524 142.586 104.744 142.673 104.985C142.76 105.226 142.789 105.483 142.759 105.736C142.561 107.4 140.529 107.394 139.714 106.295C139.539 106.079 139.427 105.823 139.391 105.553C139.354 105.283 139.393 105.008 139.504 104.757C139.615 104.506 139.794 104.287 140.022 104.123C140.251 103.959 140.522 103.855 140.806 103.823L140.804 103.825ZM133.979 103.939C134.241 103.991 134.486 104.106 134.688 104.272C134.891 104.439 135.046 104.652 135.137 104.892C135.229 105.131 135.254 105.389 135.212 105.641C135.169 105.892 135.059 106.129 134.892 106.329C134.021 107.455 131.867 106.851 131.787 105.674C131.789 105.416 131.851 105.162 131.967 104.929C132.083 104.696 132.251 104.489 132.46 104.324C132.668 104.159 132.912 104.039 133.175 103.973C133.437 103.906 133.711 103.895 133.979 103.939ZM127.961 104.819C128.091 104.992 128.184 105.188 128.233 105.395C128.282 105.603 128.287 105.817 128.247 106.026C128.207 106.235 128.123 106.435 128 106.612C127.878 106.79 127.718 106.942 127.532 107.06C127.265 107.187 126.969 107.247 126.671 107.234C126.373 107.222 126.083 107.138 125.829 106.989C125.575 106.841 125.364 106.634 125.217 106.387C125.07 106.141 124.992 105.863 124.989 105.579C125.012 105.258 125.14 104.951 125.355 104.702C125.57 104.453 125.862 104.274 126.189 104.19C126.517 104.107 126.864 104.122 127.181 104.235C127.499 104.348 127.771 104.552 127.961 104.819ZM119.936 104.573C121.103 104.982 121.58 106.349 120.424 106.973C120.032 107.193 119.582 107.304 119.127 107.291C118.671 107.278 118.229 107.143 117.851 106.901C116.455 105.85 117.67 103.78 119.936 104.573ZM111.237 104.414C111.499 104.36 111.77 104.363 112.031 104.423C112.291 104.483 112.534 104.599 112.74 104.762C112.946 104.925 113.11 105.13 113.22 105.362C113.33 105.595 113.383 105.848 113.375 106.102C113.287 107.613 111.417 107.665 110.446 106.913C110.227 106.732 110.067 106.495 109.986 106.231C109.905 105.966 109.906 105.684 109.99 105.42C110.074 105.156 110.236 104.921 110.457 104.742C110.678 104.564 110.949 104.45 111.237 104.415V104.414ZM104.733 104.639C104.99 104.668 105.236 104.755 105.451 104.893C105.666 105.03 105.843 105.213 105.969 105.428C106.095 105.643 106.166 105.883 106.176 106.129C106.185 106.375 106.134 106.619 106.025 106.843C105.49 108.001 103.395 108.207 102.907 106.732C102.822 106.474 102.807 106.2 102.862 105.935C102.917 105.67 103.041 105.423 103.222 105.215C103.404 105.007 103.637 104.845 103.901 104.744C104.165 104.644 104.451 104.607 104.733 104.639ZM160.531 111.588C160.818 108.035 160.326 102.153 160.615 99.998C160.694 99.4029 161.653 99.1684 161.799 99.8575C161.826 99.9817 162.064 108.671 161.916 111.33C161.835 112.782 162.008 112.916 160.311 113.009C147.769 113.692 134.83 113.622 122.242 113.792C114.099 113.903 106.164 114.094 98.0214 113.928C96.774 113.903 97.0582 113.46 96.9834 112.475C96.7575 109.509 96.9834 105.602 96.9269 100.702C96.9507 100.502 97.0481 100.316 97.202 100.178C97.3559 100.04 97.5562 99.958 97.7676 99.9467C115.164 99.2896 139.096 99.3089 158.696 99.011C158.872 99.0188 159.038 99.0908 159.16 99.2122C159.281 99.3335 159.349 99.4948 159.348 99.6624C159.347 99.8299 159.279 99.9908 159.156 100.111C159.034 100.232 158.867 100.303 158.691 100.31C138.099 100.196 114.566 101.441 98.2752 100.96C98.1451 105.009 98.3646 109.321 98.2117 112.821C110.965 112.451 123.591 112.482 136.366 112.223C144.464 112.058 152.468 111.608 160.535 111.588H160.531ZM160.277 88.4366C160.729 84.745 160.07 80.7333 160.267 77.152C139.673 77.3124 118.733 77.3516 98.1318 77.3733C97.9896 80.541 98.0988 86.2192 97.9484 89.1728C97.9135 89.8583 96.8342 89.9313 96.8063 89.221C96.6705 85.7091 96.5925 81.2826 96.7467 77.7266C96.8101 76.2404 97.01 76.2368 98.4471 76.2061C117.469 75.8033 140.561 75.4482 159.548 75.9046C161.107 75.9426 161.355 75.9951 161.574 77.5928C161.852 79.6318 162.055 87.5817 161.632 89.2078C161.6 89.3642 161.514 89.5056 161.386 89.6085C161.258 89.7114 161.097 89.7695 160.929 89.7733C140.385 90.2176 120.486 90.5336 100.637 90.2912C99.9052 90.2827 99.9914 89.2349 100.701 89.2283C120.573 89.0239 140.6 88.5512 160.279 88.4312L160.277 88.4366ZM87.5467 122.293C90.3143 121.645 90.6398 123.499 88.8309 125.177C87.2559 126.621 85.9934 128.344 85.1147 130.248C84.7854 130.954 83.592 130.535 83.9244 129.826C84.9349 127.7 86.3584 125.774 88.1203 124.149C88.9793 123.333 88.9096 123.274 87.817 123.538C81.8319 124.985 77.6183 132.847 71.04 132.386C68.7717 132.227 69.1702 131.279 71.04 131.24C77.3436 131.104 81.4208 123.728 87.5467 122.293Z" fill="black"/>
</svg>
