<svg width="360" height="360" viewBox="0 0 360 360" fill="none" xmlns="http://www.w3.org/2000/svg">
<mask id="mask0" mask-type="alpha" maskUnits="userSpaceOnUse" x="0" y="0" width="360" height="360">
<path fill-rule="evenodd" clip-rule="evenodd" d="M180 360C279.411 360 360 279.411 360 180C360 80.5887 279.411 0 180 0C80.5887 0 0 80.5887 0 180C0 279.411 80.5887 360 180 360Z" fill="white"/>
</mask>
<g mask="url(#mask0)">
<path fill-rule="evenodd" clip-rule="evenodd" d="M180 364C279.411 364 360 283.411 360 184C360 84.5887 279.411 4 180 4C80.5887 4 0 84.5887 0 184C0 283.411 80.5887 364 180 364Z" fill="#F5F5F8"/>
<path fill-rule="evenodd" clip-rule="evenodd" d="M310.963 316.235C300.351 300.884 284.706 289.726 266.736 284.692L224.999 273V243.001C242.643 229.747 254.23 208.89 254.942 185.297C257.408 186.384 260.13 187 263 187C274.045 187 283 178.046 283 167C283 155.954 274.045 147 263 147C260.153 147 257.451 147.603 255 148.675V143C255 101.578 221.421 68 180 68H179.999C138.578 68 105 101.578 105 143V148.675C102.548 147.603 99.846 147 97 147C85.954 147 77 155.954 77 167C77 178.046 85.954 187 97 187C99.869 187 102.591 186.385 105.058 185.297C105.769 208.89 117.356 229.747 134.999 243.001V273L93.263 284.692C75.293 289.726 59.648 300.884 49.036 316.235L20 358.24V388H340V358.24L310.963 316.235Z" fill="#FFCF83"/>
<path fill-rule="evenodd" clip-rule="evenodd" d="M179.999 258C170.751 258 161.899 256.316 153.719 253.255C165.353 260.687 179.169 265 193.999 265C205.059 265 215.548 262.587 224.999 258.29V243.001C212.464 252.417 196.884 258 179.999 258Z" fill="#F7A74F"/>
<path d="M107.609 169.919C107.864 168.99 108.001 168.011 108.001 167.001C108.001 160.926 103.076 156.001 97.0006 156.001C95.4816 156.001 94.0346 156.309 92.7186 156.865" stroke="#00004D" stroke-width="2" stroke-linecap="round" stroke-linejoin="round"/>
<path d="M252.391 169.919C252.136 168.99 252 168.011 252 167.001C252 160.926 256.925 156.001 263 156.001C264.518 156.001 265.965 156.309 267.282 156.865" stroke="#00004D" stroke-width="2" stroke-linecap="round" stroke-linejoin="round"/>
<path fill-rule="evenodd" clip-rule="evenodd" d="M340 356.24L310.963 314.235C300.352 298.885 284.707 287.726 266.736 282.692L264.525 282.072L255.581 264.712C253.379 260.437 249.711 257.099 245.248 255.309L225 247.186V271.24C224.997 271.246 224.996 271.25 224.993 271.256L180.256 315.994C180.17 315.994 180.086 316 180 316L135 271V246.936L114.752 255.06C110.289 256.85 106.621 260.188 104.419 264.462L95.325 282.114L93.263 282.692C75.293 287.726 59.648 298.885 49.036 314.235L20 356.24V386H340V356.24Z" fill="#80C43B"/>
<path d="M95.3252 282.114L180 331.123L241.291 295.829" stroke="#00004D" stroke-width="2" stroke-linecap="round" stroke-linejoin="round"/>
<path fill-rule="evenodd" clip-rule="evenodd" d="M157 371.123V371.123C155.343 371.123 154 369.779 154 368.123V316.151L160 319.547V368.123C160 369.779 158.657 371.123 157 371.123" fill="#00004D"/>
<path fill-rule="evenodd" clip-rule="evenodd" d="M203 350.123V350.123C201.343 350.123 200 348.779 200 347.123V319.606L206 316.151V347.123C206 348.779 204.657 350.123 203 350.123" fill="#00004D"/>
<path d="M127 263L135 271" stroke="#00004D" stroke-width="2" stroke-linecap="round" stroke-linejoin="round"/>
<path fill-rule="evenodd" clip-rule="evenodd" d="M261.642 146.068C255.66 146.471 250.41 149.496 247.017 154.014L243.773 137.794H207.954L198.121 108.979V137.794H116.228L112.984 154.014C109.591 149.496 104.341 146.471 98.3586 146.068V146.05L100.983 129.439C102.657 118.837 106.415 108.931 111.821 100.144C118.763 88.8605 128.433 79.4445 139.906 72.7845C151.697 65.9385 165.384 61.9995 180 61.9995C194.616 61.9995 208.304 65.9385 220.095 72.7845C231.568 79.4445 241.238 88.8605 248.18 100.144C253.585 108.931 257.344 118.837 259.018 129.439L261.642 146.05V146.068ZM135 241.975C117.373 228.718 105.77 207.882 105.058 184.296C102.591 185.384 99.869 185.999 97 185.999C95.322 185.999 93.702 185.771 92.146 185.381L80 262.276H135V241.975ZM263 186C260.131 186 257.408 185.385 254.941 184.297C254.23 207.883 242.627 228.719 225 241.975V262.276H280L267.854 185.382C266.297 185.771 264.678 186 263 186Z" fill="#00004D"/>
<path d="M177 165L187 199L173 201" stroke="#00004D" stroke-width="2" stroke-linecap="round" stroke-linejoin="round"/>
<path d="M192.56 219.5C189.902 223.703 185.213 226.493 179.873 226.493C174.7 226.493 170.138 223.874 167.441 219.889" stroke="#00004D" stroke-width="2" stroke-linecap="round" stroke-linejoin="round"/>
</g>
<path fill-rule="evenodd" clip-rule="evenodd" d="M221 172C221 176.418 217.418 180 213 180C208.582 180 205 176.418 205 172C205 167.582 208.582 164 213 164C217.418 164 221 167.582 221 172" fill="#00004D"/>
<path fill-rule="evenodd" clip-rule="evenodd" d="M155 172C155 176.418 151.418 180 147 180C142.582 180 139 176.418 139 172C139 167.582 142.582 164 147 164C151.418 164 155 167.582 155 172" fill="#00004D"/>
</svg>
