<svg width="360" height="360" viewBox="0 0 360 360" fill="none" xmlns="http://www.w3.org/2000/svg">
<rect width="360" height="360" rx="180" fill="#F5F5F8"/>
<mask id="mask0" mask-type="alpha" maskUnits="userSpaceOnUse" x="0" y="0" width="360" height="360">
<rect width="360" height="360" rx="180" fill="white"/>
</mask>
<g mask="url(#mask0)">
<path fill-rule="evenodd" clip-rule="evenodd" d="M310.964 318.235C300.352 302.884 284.706 291.726 266.736 286.692L224.999 275V245.001C242.643 231.747 254.23 210.89 254.942 187.297C257.408 188.384 260.13 189 263 189C274.045 189 283 180.046 283 169C283 157.954 274.045 149 263 149C260.153 149 257.451 149.603 255 150.675V145C255 103.578 221.421 70.0003 180 70.0003H179.999C138.578 70.0003 105 103.578 105 145V150.675C102.548 149.603 99.8465 149 97.0005 149C85.9545 149 77.0005 157.954 77.0005 169C77.0005 180.046 85.9545 189 97.0005 189C99.8695 189 102.591 188.385 105.058 187.297C105.769 210.89 117.356 231.747 134.999 245.001V275L93.2635 286.692C75.2935 291.726 59.6485 302.884 49.0365 318.235L20.0005 360.24V390H340V360.24L310.964 318.235Z" fill="#E9ADA1"/>
<path fill-rule="evenodd" clip-rule="evenodd" d="M180 260C170.752 260 161.9 258.316 153.72 255.255C165.354 262.687 179.17 267 194 267C205.06 267 215.549 264.587 225 260.29V245.001C212.465 254.417 196.885 260 180 260Z" fill="#DB8B79"/>
<path d="M107.609 171.919C107.864 170.99 108.001 170.011 108.001 169.001C108.001 162.926 103.076 158.001 97.0011 158.001C95.4821 158.001 94.0351 158.309 92.7191 158.865" stroke="#00004D" stroke-width="2" stroke-linecap="round" stroke-linejoin="round"/>
<path d="M252.392 171.919C252.137 170.99 252.001 170.011 252.001 169.001C252.001 162.926 256.926 158.001 263.001 158.001C264.519 158.001 265.966 158.309 267.283 158.865" stroke="#00004D" stroke-width="2" stroke-linecap="round" stroke-linejoin="round"/>
<path fill-rule="evenodd" clip-rule="evenodd" d="M200 214.009C200 225.055 191.046 234.009 180 234.009C168.954 234.009 160 225.055 160 214.009H200Z" fill="white"/>
<path fill-rule="evenodd" clip-rule="evenodd" d="M221 172C221 176.418 217.418 180 213 180C208.582 180 205 176.418 205 172C205 167.582 208.582 164 213 164C217.418 164 221 167.582 221 172Z" fill="#00004D"/>
<path fill-rule="evenodd" clip-rule="evenodd" d="M155 172C155 176.418 151.418 180 147 180C142.582 180 139 176.418 139 172C139 167.582 142.582 164 147 164C151.418 164 155 167.582 155 172Z" fill="#00004D"/>
<path d="M180 164L190 198L176 200" stroke="#00004D" stroke-width="2" stroke-linecap="round" stroke-linejoin="round"/>
<path fill-rule="evenodd" clip-rule="evenodd" d="M156.361 114.441C145.954 132.222 130.2 146.473 111.32 155.054C107.983 151.628 103.428 149.412 98.3548 149.071L100.982 132.44V132.439C102.656 121.838 106.415 111.932 111.82 103.145C116.812 95.0326 123.218 87.8926 130.685 82.0406C133.604 79.7526 136.681 77.6566 139.905 75.7836C148.957 70.5296 159.13 66.9956 169.98 65.6336C173.262 65.2216 176.605 64.9996 180 64.9996C194.615 64.9996 208.304 68.9386 220.095 75.7836C231.568 82.4446 241.237 91.8606 248.18 103.145C253.585 111.932 257.344 121.838 259.018 132.44L261.642 149.051C256.339 149.41 251.613 151.843 248.241 155.536C212.705 152.782 180.641 137.653 156.361 114.441ZM135 244.975C117.373 231.718 105.769 210.882 105.058 187.296C102.591 188.384 99.869 188.999 97 188.999C95.322 188.999 93.703 188.771 92.146 188.381L80 265.276H135V244.975ZM263 189C260.131 189 257.408 188.385 254.941 187.297C254.23 210.883 242.627 231.719 225 244.975V265.276H280L267.854 188.382C266.297 188.771 264.678 189 263 189Z" fill="#00004D"/>
<path fill-rule="evenodd" clip-rule="evenodd" d="M340 360.24L310.963 318.235C300.352 302.885 284.707 291.726 266.736 286.692L225 275C225 299.853 204.853 320 180 320C155.147 320 135 299.853 135 275L93.263 286.692C75.293 291.726 59.648 302.885 49.036 318.235L20 360.24V390H340V360.24Z" fill="#2384F5"/>
</g>
</svg>
