<svg width="400" height="410" viewBox="0 0 400 410" fill="none" xmlns="http://www.w3.org/2000/svg">
<rect width="400" height="400" rx="200" fill="white"/>
<rect x="20" y="20" width="360" height="360" rx="180" fill="#F5F5F8"/>
<mask id="mask0" mask-type="alpha" maskUnits="userSpaceOnUse" x="20" y="20" width="360" height="360">
<rect x="20" y="20" width="360" height="360" rx="180" fill="white"/>
</mask>
<g mask="url(#mask0)">
<path fill-rule="evenodd" clip-rule="evenodd" d="M330.964 338.235C320.352 322.884 304.706 311.726 286.736 306.692L244.999 295V265.001C262.643 251.747 274.23 230.89 274.942 207.297C277.408 208.384 280.13 209 283 209C294.045 209 303 200.046 303 189C303 177.954 294.045 169 283 169C280.153 169 277.451 169.603 275 170.675V165C275 123.578 241.421 90.0003 200 90.0003H199.999C158.578 90.0003 125 123.578 125 165V170.675C122.548 169.603 119.846 169 117 169C105.954 169 97.0005 177.954 97.0005 189C97.0005 200.046 105.954 209 117 209C119.869 209 122.591 208.385 125.058 207.297C125.769 230.89 137.356 251.747 154.999 265.001V295L113.263 306.692C95.2935 311.726 79.6485 322.884 69.0365 338.235L40.0005 380.24V410H360V380.24L330.964 338.235Z" fill="#B5683C"/>
<path fill-rule="evenodd" clip-rule="evenodd" d="M199.999 280C190.751 280 181.899 278.316 173.719 275.255C185.353 282.687 199.169 287 213.999 287C225.059 287 235.548 284.587 244.999 280.29V265.001C232.464 274.417 216.884 280 199.999 280Z" fill="#A3420B"/>
<path d="M127.609 191.919C127.864 190.99 128.001 190.011 128.001 189.001C128.001 182.926 123.076 178.001 117.001 178.001C115.482 178.001 114.035 178.309 112.719 178.865" stroke="#00004D" stroke-width="2" stroke-linecap="round" stroke-linejoin="round"/>
<path d="M272.392 191.919C272.137 190.99 272.001 190.011 272.001 189.001C272.001 182.926 276.926 178.001 283.001 178.001C284.519 178.001 285.966 178.309 287.283 178.865" stroke="#00004D" stroke-width="2" stroke-linecap="round" stroke-linejoin="round"/>
<path fill-rule="evenodd" clip-rule="evenodd" d="M220 234.009C220 245.055 211.046 254.009 200 254.009C188.954 254.009 180 245.055 180 234.009H220Z" fill="white"/>
<path fill-rule="evenodd" clip-rule="evenodd" d="M241 192C241 196.418 237.418 200 233 200C228.582 200 225 196.418 225 192C225 187.582 228.582 184 233 184C237.418 184 241 187.582 241 192Z" fill="#00004D"/>
<path fill-rule="evenodd" clip-rule="evenodd" d="M175 192C175 196.418 171.418 200 167 200C162.582 200 159 196.418 159 192C159 187.582 162.582 184 167 184C171.418 184 175 187.582 175 192Z" fill="#00004D"/>
<path d="M200 184L210 218L196 220" stroke="#00004D" stroke-width="2" stroke-linecap="round" stroke-linejoin="round"/>
<path fill-rule="evenodd" clip-rule="evenodd" d="M360 380.24L330.963 338.235C320.352 322.885 304.707 311.726 286.736 306.692L245 295C245 319.853 224.853 340 200 340V340C175.147 340 155 319.853 155 295L113.263 306.692C95.293 311.726 79.648 322.885 69.036 338.235L40 380.24V410H360V380.24Z" fill="#00004D"/>
</g>
<path fill-rule="evenodd" clip-rule="evenodd" d="M115 165C115 118.056 153.056 79.9998 200 79.9998C246.944 79.9998 285 118.056 285 165C285 166.375 284.955 167.738 284.886 169.096C284.264 169.037 283.637 169 283 169C277.382 169 272.313 171.324 268.68 175.054C249.801 166.473 234.047 152.222 223.639 134.44C199.359 157.652 167.295 172.781 131.759 175.536C128.102 171.529 122.853 169 117 169C116.364 169 115.736 169.037 115.116 169.096C115.047 167.738 115 166.375 115 165ZM117 209C119.86 209 122.575 208.39 125.035 207.308C125.732 230.346 136.832 250.757 153.782 264.044C145.168 279.109 128.955 289.269 110.359 289.269C82.7451 289.269 60.3591 266.883 60.3591 239.269C60.3591 216.245 75.9261 196.869 97.1051 191.058C98.1351 201.137 106.648 209 117 209Z" fill="#00004D"/>
</svg>
