<svg width="245" height="64" viewBox="0 0 245 64" fill="none" xmlns="http://www.w3.org/2000/svg">
<rect y="6" width="107" height="58" rx="10" fill="#6F85F5"/>
<path d="M17.95 23.2C20.5833 23.2 22.7667 23.6167 24.5 24.45C26.2667 25.2833 27.15 26.35 27.15 27.65C27.15 28.2167 26.9667 28.7333 26.6 29.2C26.2333 29.6333 25.7667 29.85 25.2 29.85C24.7667 29.85 24.4167 29.7833 24.15 29.65C23.9167 29.5167 23.5833 29.3 23.15 29C22.95 28.8 22.6333 28.5667 22.2 28.3C21.8 28.1 21.2333 27.9333 20.5 27.8C19.7667 27.6667 19.1 27.6 18.5 27.6C16.7667 27.6 15.2333 28 13.9 28.8C12.5667 29.6 11.5333 30.7167 10.8 32.15C10.0667 33.55 9.7 35.1167 9.7 36.85C9.7 38.6167 10.05 40.2 10.75 41.6C11.4833 43 12.5 44.1 13.8 44.9C15.1 45.7 16.5833 46.1 18.25 46.1C19.9833 46.1 21.3833 45.8333 22.45 45.3C22.6833 45.1667 23 44.95 23.4 44.65C23.7333 44.3833 24.0167 44.1833 24.25 44.05C24.5167 43.9167 24.8333 43.85 25.2 43.85C25.8667 43.85 26.3833 44.0667 26.75 44.5C27.15 44.9 27.35 45.4333 27.35 46.1C27.35 46.8 26.9 47.5 26 48.2C25.1333 48.8667 23.95 49.4167 22.45 49.85C20.9833 50.2833 19.4 50.5 17.7 50.5C15.1667 50.5 12.9333 49.9167 11 48.75C9.06667 47.55 7.56667 45.9167 6.5 43.85C5.46667 41.75 4.95 39.4167 4.95 36.85C4.95 34.2833 5.5 31.9667 6.6 29.9C7.7 27.8 9.23333 26.1667 11.2 25C13.1667 23.8 15.4167 23.2 17.95 23.2ZM45.2836 23.35C51.1503 23.35 54.0836 26.9833 54.0836 34.25V47.6C54.0836 48.2667 53.8503 48.8333 53.3836 49.3C52.9503 49.7667 52.3836 50 51.6836 50C51.0169 50 50.4503 49.7667 49.9836 49.3C49.5503 48.8333 49.3336 48.2667 49.3336 47.6V34.25C49.3336 29.9167 47.5003 27.75 43.8336 27.75C41.8669 27.75 40.2336 28.3833 38.9336 29.65C37.6336 30.8833 36.9836 32.4167 36.9836 34.25V47.6C36.9836 48.2667 36.7503 48.8333 36.2836 49.3C35.8503 49.7667 35.2836 50 34.5836 50C33.8836 50 33.3169 49.7833 32.8836 49.35C32.4503 48.8833 32.2336 48.3 32.2336 47.6V15.4C32.2336 14.7333 32.4503 14.1667 32.8836 13.7C33.3503 13.2333 33.9169 13 34.5836 13C35.2836 13 35.8503 13.2333 36.2836 13.7C36.7503 14.1667 36.9836 14.7333 36.9836 15.4V28.05C37.8169 26.75 38.9836 25.65 40.4836 24.75C41.9836 23.8167 43.5836 23.35 45.2836 23.35ZM82.4387 23.45C83.1387 23.45 83.7053 23.6833 84.1387 24.15C84.6053 24.5833 84.8387 25.1667 84.8387 25.9V47.6C84.8387 48.2667 84.6053 48.8333 84.1387 49.3C83.7053 49.7667 83.1387 50 82.4387 50C81.7387 50 81.172 49.7833 80.7387 49.35C80.3053 48.8833 80.0887 48.3 80.0887 47.6V46.3C79.222 47.4667 78.0387 48.4667 76.5387 49.3C75.0387 50.1 73.422 50.5 71.6887 50.5C69.422 50.5 67.3553 49.9167 65.4887 48.75C63.6553 47.5833 62.2053 45.9667 61.1387 43.9C60.1053 41.8 59.5887 39.45 59.5887 36.85C59.5887 34.25 60.1053 31.9167 61.1387 29.85C62.2053 27.75 63.6553 26.1167 65.4887 24.95C67.322 23.7833 69.3387 23.2 71.5387 23.2C73.3053 23.2 74.9387 23.5667 76.4387 24.3C77.972 25.0333 79.1887 25.9667 80.0887 27.1V25.9C80.0887 25.2 80.3053 24.6167 80.7387 24.15C81.172 23.6833 81.7387 23.45 82.4387 23.45ZM72.2387 46.1C73.8053 46.1 75.1887 45.7 76.3887 44.9C77.622 44.1 78.572 43 79.2387 41.6C79.9387 40.2 80.2887 38.6167 80.2887 36.85C80.2887 35.1167 79.9387 33.55 79.2387 32.15C78.572 30.75 77.622 29.65 76.3887 28.85C75.1887 28.0167 73.8053 27.6 72.2387 27.6C70.672 27.6 69.272 28 68.0387 28.8C66.8387 29.6 65.8887 30.7 65.1887 32.1C64.522 33.5 64.1887 35.0833 64.1887 36.85C64.1887 38.6167 64.522 40.2 65.1887 41.6C65.8887 43 66.8387 44.1 68.0387 44.9C69.272 45.7 70.672 46.1 72.2387 46.1ZM99.0016 28.45V43.35C99.0016 45.0167 99.7516 45.85 101.252 45.85C101.485 45.85 101.802 45.8 102.202 45.7C102.602 45.5667 102.918 45.5 103.152 45.5C103.585 45.5 103.952 45.6833 104.252 46.05C104.552 46.4167 104.702 46.8833 104.702 47.45C104.702 48.15 104.302 48.75 103.502 49.25C102.702 49.75 101.802 50 100.802 50C99.7016 50 98.6849 49.8833 97.7516 49.65C96.8516 49.4167 96.0349 48.8333 95.3016 47.9C94.6016 46.9333 94.2516 45.4833 94.2516 43.55V28.45H91.3516C90.7182 28.45 90.1849 28.25 89.7516 27.85C89.3516 27.4167 89.1516 26.8833 89.1516 26.25C89.1516 25.6167 89.3516 25.1 89.7516 24.7C90.1849 24.3 90.7182 24.1 91.3516 24.1H94.2516V19.9C94.2516 19.2333 94.4682 18.6667 94.9016 18.2C95.3682 17.7333 95.9516 17.5 96.6516 17.5C97.3182 17.5 97.8682 17.7333 98.3016 18.2C98.7682 18.6667 99.0016 19.2333 99.0016 19.9V24.1H103.152C103.785 24.1 104.302 24.3167 104.702 24.75C105.135 25.15 105.352 25.6667 105.352 26.3C105.352 26.9333 105.135 27.45 104.702 27.85C104.302 28.25 103.785 28.45 103.152 28.45H99.0016Z" fill="white"/>
<path d="M117.996 28.45V43.35C117.996 45.0167 118.746 45.85 120.246 45.85C120.479 45.85 120.796 45.8 121.196 45.7C121.596 45.5667 121.912 45.5 122.146 45.5C122.579 45.5 122.946 45.6833 123.246 46.05C123.546 46.4167 123.696 46.8833 123.696 47.45C123.696 48.15 123.296 48.75 122.496 49.25C121.696 49.75 120.796 50 119.796 50C118.696 50 117.679 49.8833 116.746 49.65C115.846 49.4167 115.029 48.8333 114.296 47.9C113.596 46.9333 113.246 45.4833 113.246 43.55V28.45H110.346C109.712 28.45 109.179 28.25 108.746 27.85C108.346 27.4167 108.146 26.8833 108.146 26.25C108.146 25.6167 108.346 25.1 108.746 24.7C109.179 24.3 109.712 24.1 110.346 24.1H113.246V19.9C113.246 19.2333 113.462 18.6667 113.896 18.2C114.362 17.7333 114.946 17.5 115.646 17.5C116.312 17.5 116.862 17.7333 117.296 18.2C117.762 18.6667 117.996 19.2333 117.996 19.9V24.1H122.146C122.779 24.1 123.296 24.3167 123.696 24.75C124.129 25.15 124.346 25.6667 124.346 26.3C124.346 26.9333 124.129 27.45 123.696 27.85C123.296 28.25 122.779 28.45 122.146 28.45H117.996ZM134.39 47.6C134.39 48.2667 134.157 48.8333 133.69 49.3C133.257 49.7667 132.69 50 131.99 50C131.323 50 130.757 49.7667 130.29 49.3C129.857 48.8333 129.64 48.2667 129.64 47.6V25.95C129.64 25.2833 129.857 24.7167 130.29 24.25C130.757 23.7833 131.323 23.55 131.99 23.55C132.69 23.55 133.257 23.7833 133.69 24.25C134.157 24.7167 134.39 25.2833 134.39 25.95V47.6ZM131.99 20.25C131.023 20.25 130.323 20.0833 129.89 19.75C129.49 19.3833 129.29 18.8167 129.29 18.05V17.25C129.29 16.45 129.507 15.8833 129.94 15.55C130.407 15.2167 131.107 15.05 132.04 15.05C132.973 15.05 133.64 15.2333 134.04 15.6C134.473 15.9333 134.69 16.4833 134.69 17.25V18.05C134.69 18.85 134.473 19.4167 134.04 19.75C133.607 20.0833 132.923 20.25 131.99 20.25ZM148.318 28.45V43.35C148.318 45.0167 149.068 45.85 150.568 45.85C150.801 45.85 151.118 45.8 151.518 45.7C151.918 45.5667 152.235 45.5 152.468 45.5C152.901 45.5 153.268 45.6833 153.568 46.05C153.868 46.4167 154.018 46.8833 154.018 47.45C154.018 48.15 153.618 48.75 152.818 49.25C152.018 49.75 151.118 50 150.118 50C149.018 50 148.001 49.8833 147.068 49.65C146.168 49.4167 145.351 48.8333 144.618 47.9C143.918 46.9333 143.568 45.4833 143.568 43.55V28.45H140.668C140.035 28.45 139.501 28.25 139.068 27.85C138.668 27.4167 138.468 26.8833 138.468 26.25C138.468 25.6167 138.668 25.1 139.068 24.7C139.501 24.3 140.035 24.1 140.668 24.1H143.568V19.9C143.568 19.2333 143.785 18.6667 144.218 18.2C144.685 17.7333 145.268 17.5 145.968 17.5C146.635 17.5 147.185 17.7333 147.618 18.2C148.085 18.6667 148.318 19.2333 148.318 19.9V24.1H152.468C153.101 24.1 153.618 24.3167 154.018 24.75C154.451 25.15 154.668 25.6667 154.668 26.3C154.668 26.9333 154.451 27.45 154.018 27.85C153.618 28.25 153.101 28.45 152.468 28.45H148.318ZM179.712 23.8C180.412 23.8 180.979 24.0333 181.412 24.5C181.879 24.9667 182.112 25.5333 182.112 26.2V39.5C182.112 42.9667 181.145 45.6667 179.212 47.6C177.312 49.5 174.612 50.45 171.112 50.45C167.645 50.45 164.962 49.5 163.062 47.6C161.162 45.6667 160.212 42.9667 160.212 39.5V26.2C160.212 25.5333 160.429 24.9667 160.862 24.5C161.329 24.0333 161.895 23.8 162.562 23.8C163.262 23.8 163.829 24.0333 164.262 24.5C164.729 24.9667 164.962 25.5333 164.962 26.2V39.5C164.962 43.8667 167.012 46.05 171.112 46.05C173.145 46.05 174.695 45.5 175.762 44.4C176.829 43.3 177.362 41.6667 177.362 39.5V26.2C177.362 25.5333 177.579 24.9667 178.012 24.5C178.479 24.0333 179.045 23.8 179.712 23.8ZM210.466 13C211.166 13 211.733 13.2333 212.166 13.7C212.633 14.1333 212.866 14.7 212.866 15.4V47.6C212.866 48.2667 212.633 48.8333 212.166 49.3C211.733 49.7667 211.166 50 210.466 50C209.766 50 209.199 49.7833 208.766 49.35C208.333 48.8833 208.116 48.3 208.116 47.6V46.2C207.283 47.4 206.099 48.4167 204.566 49.25C203.066 50.0833 201.449 50.5 199.716 50.5C197.449 50.5 195.399 49.9167 193.566 48.75C191.733 47.5833 190.283 45.9667 189.216 43.9C188.149 41.8 187.616 39.45 187.616 36.85C187.616 34.25 188.133 31.9167 189.166 29.85C190.233 27.75 191.683 26.1167 193.516 24.95C195.349 23.7833 197.366 23.2 199.566 23.2C201.333 23.2 202.966 23.5667 204.466 24.3C205.966 25.0333 207.183 25.9833 208.116 27.15V15.4C208.116 14.7 208.333 14.1333 208.766 13.7C209.199 13.2333 209.766 13 210.466 13ZM200.266 46.1C201.833 46.1 203.216 45.7 204.416 44.9C205.649 44.1 206.599 43 207.266 41.6C207.966 40.2 208.316 38.6167 208.316 36.85C208.316 35.1167 207.966 33.55 207.266 32.15C206.599 30.7167 205.649 29.6 204.416 28.8C203.216 28 201.833 27.6 200.266 27.6C198.699 27.6 197.299 28 196.066 28.8C194.866 29.6 193.916 30.7167 193.216 32.15C192.549 33.55 192.216 35.1167 192.216 36.85C192.216 38.6167 192.549 40.2 193.216 41.6C193.916 43 194.866 44.1 196.066 44.9C197.299 45.7 198.699 46.1 200.266 46.1ZM242.929 35.9C242.896 36.5 242.646 37.0167 242.179 37.45C241.712 37.85 241.162 38.05 240.529 38.05H222.929C223.162 40.4833 224.079 42.4333 225.679 43.9C227.312 45.3667 229.296 46.1 231.629 46.1C233.229 46.1 234.529 45.8667 235.529 45.4C236.529 44.9333 237.412 44.3333 238.179 43.6C238.679 43.3 239.162 43.15 239.629 43.15C240.196 43.15 240.662 43.35 241.029 43.75C241.429 44.15 241.629 44.6167 241.629 45.15C241.629 45.85 241.296 46.4833 240.629 47.05C239.662 48.0167 238.379 48.8333 236.779 49.5C235.179 50.1667 233.546 50.5 231.879 50.5C229.179 50.5 226.796 49.9333 224.729 48.8C222.696 47.6667 221.112 46.0833 219.979 44.05C218.879 42.0167 218.329 39.7167 218.329 37.15C218.329 34.35 218.896 31.9 220.029 29.8C221.196 27.6667 222.712 26.0333 224.579 24.9C226.479 23.7667 228.512 23.2 230.679 23.2C232.812 23.2 234.812 23.75 236.679 24.85C238.546 25.95 240.046 27.4667 241.179 29.4C242.312 31.3333 242.896 33.5 242.929 35.9ZM230.679 27.6C228.812 27.6 227.196 28.1333 225.829 29.2C224.462 30.2333 223.562 31.85 223.129 34.05H237.879V33.65C237.712 31.8833 236.912 30.4333 235.479 29.3C234.079 28.1667 232.479 27.6 230.679 27.6Z" fill="#4F4F4F"/>
</svg>
